<svg width="47" height="43" fill="none" xmlns="http://www.w3.org/2000/svg"><path d="M45.414 7.456l-3.76 15.68a1.658 1.658 0 01-1.613 1.27H19.74c-.72 0-1.36-.465-1.58-1.153L13.17 7.646a2.67 2.67 0 01.384-2.385 2.67 2.67 0 012.153-1.093h27.118a2.666 2.666 0 012.59 3.288zm1.288 22.333a2.425 2.425 0 01-2.427 2.429H18.087a6.969 6.969 0 01-6.65-4.845L4.23 5.021a.236.236 0 00-.226-.164H2.43a2.428 2.428 0 110-4.857h1.576A5.077 5.077 0 018.85 3.532l7.208 22.352a2.126 2.126 0 002.03 1.477h26.187a2.428 2.428 0 012.427 2.428zM23.68 38.887a3.87 3.87 0 11-7.742 0 3.872 3.872 0 117.742 0zm20.33 0a3.87 3.87 0 11-6.61-2.738 3.872 3.872 0 015.475 0 3.87 3.87 0 011.133 2.738h.002z" fill="#262626"/></svg>