<svg width="54" height="54" fill="none" xmlns="http://www.w3.org/2000/svg"><path d="M40.434 37.07c.64.046 1.284.09 1.917.117a18.975 18.975 0 01-6.323 5.938 18.948 18.948 0 01-8.288 2.518c.299-.58.598-1.174.886-1.777 1.521-.188 3.01-.581 4.427-1.167.017-.033.032-.058.039-.086.05-.181.213-.366.213-.366l-.084-.21.185-.264s.209-.341.34-.444c.13-.103 1.23-1.053 1.468-1.232.207-.164 1.118-.85 1.517-1.173.055-.044.098-.086.136-.113.26-.236.763-.868.942-1.16.089-.132.226-.47.354-.792.762.084 1.52.156 2.27.212zm-2.271-.211h-.003.003zM21.9 38.427a.52.52 0 01.018.01l.002.006-.015-.01a.01.01 0 01.003.008l.014.006c.046.125.025.342.042.433.027.13.21-.025.342-.025.1 0 .124.078.237.15a.55.55 0 00.128.06c.234.077.287-.08.287-.08l.264.315.21.289-.21.5-.183.184s.03-.236 0-.425c-.028-.181-.183.085-.183.085l-.158.498.574.555.174.156.376.345.025.067.214.617-.03.21.132.345s-.166.07-.316.104a.682.682 0 01-.156.026c-.077 0-.17.09-.245.183-.083.099-.148.21-.148.21s.06.117.148.239a.913.913 0 00.193.207c.037.03.07.043.102.07.03.004.056.012.084.015a.23.23 0 01-.018.033h.003l-.078.134c-.228.394-.514.88-.844 1.393a19.137 19.137 0 01-5.491-1.975c.05 3.444.694 5.677 1.952 6.015 2.383.64 6.248-5.724 9.438-15.03a94.046 94.046 0 01-4.087-1.012C10.097 29.414-.935 23.205.063 19.473c.533-1.99 4.374-2.874 10.062-2.674-.066.11-.128.229-.19.34a18.975 18.975 0 017.042-7.113 18.907 18.907 0 019.625-2.558c-.115-.002-.233-.006-.352-.005 2.67-5.034 5.36-7.933 7.342-7.4 3.723 1 3.57 13.687-.343 28.325-.365 1.387-.76 2.74-1.164 4.055 9.635 1.885 17.058 1.712 17.707-.68.336-1.26-1.273-2.933-4.223-4.7v-.022c-.05 1.967-.4 3.914-1.04 5.775-.61.033-1.17.035-1.622.035-.37 0-.66-.006-.83-.013a37.65 37.65 0 01-1.492-.078c.088-.308.167-.534.18-.661.026-.16.115-.407.115-.407l-.586-.135-.068-.384-.247-.044-.227.433s-.178.27-.383.38c-.2.11-.47.134-.47.134l.064-.311c-.108-.047-.336.042-.336.042l-.025-.295s-.134-.295-.246-.314c-.112-.025-.295-.272-.295-.272s-.067-.092-.134-.273a.116.116 0 00-.02-.02l.033-.154s.213-.237.39-.446c.175-.21.235.209.417.362.18.15.12.386.12.386s.118.06.268.06c.153 0 .21.119.21.119l.3.12.3-.332s.058-.21.268-.21c.209 0 .033.27.033.422 0 .15.15 0 .565-.18.418-.176.236-.15.627-.36.39-.21.18-.15.327-.27a2.72 2.72 0 00.27-.237l.328.213.362-.062.36-.21v.272s-.237.3-.091.505c.15.21.178.15.092.42-.092.27-.033.27 0 .422.023.11.03.125.03.19 1.36-4.458.947-9.444-1.56-13.798a17.252 17.252 0 00-4.577-5.198c.053-.668.093-1.33.12-1.99a18.985 18.985 0 015.92 6.342 19.03 19.03 0 012.553 9.546l.002-.246c5.012 2.673 7.9 5.366 7.37 7.36-.845 3.155-10.02 3.533-21.661 1.202-3.811 11.273-8.724 19.05-11.871 18.207-1.985-.534-2.868-4.391-2.668-10.094.068.036.137.078.202.112a18.987 18.987 0 01-6.957-6.975 19.075 19.075 0 01-2.514-8.313c.553.289 1.115.565 1.686.843a73.673 73.673 0 006.348 2.67h-.006l.006.116-.312.554-.29.18.08.132.05.263h-.16v.578c0 .21.423.289.423.289l-.13.082s.027.128.157.34c.13.213.235.398.289.577.053.184.13.705.13.705s.344.578.5.82c.158.233.473.55.604.814.13.263.419.13.968.263.552.13.784.315.784.315s.29.234.475.342c.18.1.365.1.863.1.477 0 .166.029.748.12l.094.013c.699.102.146.052.812.358l.027.013.226.098.057.03a.159.159 0 00-.004-.006zm-.078-.064c.034.005.059.03.078.064a1.683 1.683 0 00-.053-.024c-.044-.025-.076-.048-.025-.04zm14.45-1.53c.046-.018-.066-.124-.231-.253.233.038.467.066.7.1.23.034.47.063.702.093l-.022.012c-.288.158-.445.238-.63.238h-.055c-.187.005-.437.023-.627 0-.208-.027.027-.133.162-.19zm-8.42-12.52l-.028-.032s.044.003.028.032zm6.489 4.114s-.06.375-.06.53c0 .156.124.218.124.499 0 .143-.053.26-.097.342a3.83 3.83 0 00-.112-.023s-.118.227-.16.43a.4.4 0 01-.201.272s-.134-.013-.278-.016c.178-.62.346-1.24.513-1.853l.036-.15h.04l.195-.031zm-.9 2.95c.045.182.045.27.045.27s-.02.054-.05.123l-.08-.216-.13.023.085-.284c.066.025.125.055.13.084zm2.07-5.768a.613.613 0 01.246.527c0 .312-.017.13-.065.246-.05.12-.095.086-.377.086-.28 0-.02 0-.396-.02-.265-.01-.218-.024-.283-.064.096-.373.182-.75.274-1.128l.04.02c.296.132.46.253.56.333h.002zM21.92 38.443c.03.016.045.023.002.004a.075.075 0 00-.002-.004zm8.177-25.547s.189-.106.282-.15c.098-.04 0-.05-.093-.117-.094-.067-.215.052-.215.052s-.053.054-.106.173a.11.11 0 01-.014.027c-.052.063-.108-.1-.12-.185-.014-.096-.362-.03-.35-.03.015 0 .082.174.082.174s.028.163.028.229c0 .068 0 .186.053.268.053.082.2.203.2.203l.107-.068.038-.028.163-.27.134-.12-.19-.158zm-2.143-1.191s.022-.19.127-.166c.105.018.21-.254.21-.254s-.086-.167-.19-.167c-.105 0-.335.022-.335.022l-.064-.128s-.126-.021-.295.042c-.17.064-.212-.085-.212-.085l-.021-.253-.233.064-.168-.148s-.062-.127.042-.127c.103 0 .25.022.25.022l.212-.148-.084-.167.146-.167s-.293-.151-.358-.04c-.063.102-.296.188-.296.188s.023-.064-.103-.233c-.124-.17.062-.253-.212-.19a.983.983 0 00-.37.177c-.06.04-.093.075-.093.075s-.295.062-.312.168c-.024.102.357.168.357.168s.02-.03.048-.056c.055-.06.156-.144.227-.07.103.104.187.233.187.233l-.4.21L26 10.66l-.197-.156h-.398l-.19.084-.38.043s.066.188.066.295c0 .108-.168.213-.168.213l-.225-.02-.03-.002-.232.167s-.252.022-.357.103a.098.098 0 01-.054.028c-.097.026-.198-.04-.198.1 0 .168.02.253-.103.275a1.473 1.473 0 01-.1.02l-.3.065s-.127.062-.232.168c-.102.102-.337.168-.337.168l-.034-.01-.386-.077-.546.234-.015.033-.112.264-.36.042s-.295.147-.314.25c-.01.054-.067.103-.117.139a.528.528 0 01-.093.053s-.21.084-.316.166c-.104.083-.232.25-.232.25l-.087.19.15.214-.337.04.04.168c.168.168.275.252.379.168.103-.087.04-.15.166-.19.074-.028.208-.072.324-.114.084-.03.16-.058.202-.077.104-.04.274-.188.399-.188.128 0 .252-.021.252-.021l.05-.04.286-.234.337.15.275-.041s0 .069.049.122a.2.2 0 00.078.044c.124.042.314.042.314.042s.104-.15.253-.15h.376l.043-.188.237.11.034.017.19.147s-.084.022.126.106c.128.05.247.033.323.01.046-.016.078-.033.078-.033l.359.084s.022-.337-.085-.337c-.108 0-.314-.104-.314-.104l.23-.084.253-.042.064.275.399-.128-.063-.232.02-.36.379.063.023.252s.073.034.155.05c.089.026.18.029.18-.05 0-.148-.083-.252.022-.252.105 0 .317-.063.317-.063l.102-.15.15-.338.165.255.233-.15-.043-.212.504-.233s.298-.042.425-.042c.124 0 .166-.038.166-.038s.084-.17-.042-.17c-.12.005-.222-.097-.222-.097zm-5.03 8.165l-.21.102.486.234.238.012.178.01s.128-.213.15-.422c.01-.1.034-.14.072-.171.043-.033.108-.056.2-.125.167-.125.129-.168.087-.294-.034-.097-.2-.084-.287-.072l-.051.006-.35.174-.03.017-.167-.213-.233.064-.225.227c.03 0 .143.029.143.029s.06-.023.232 0c.167.022-.042.167-.042.167l-.336.085.146.17zm-.142-.45c-.008 0-.01 0-.006.005l.006-.005zm.944-4.486l-.288.019h-.008s-.056.3.008.479l.012.032a.5.5 0 00.388.269.765.765 0 00.287-.017c.187-.04.244-.052.255-.052l-.025.01s.036-.01.025-.01l.13-.05.164-.066s.27-.166.27-.315c0-.15-.232-.104-.42-.104h-.014c-.173-.002-.16-.027-.238-.233-.085-.213-.085.124-.085.124s-.084-.02-.166-.21c-.086-.19-.105-.337-.105-.337l-.075.039-.237.128.062.127.06.167zm-.212 6.052s.085.104.212.277c.053.072.088.048.112 0 .034-.065.058-.17.116-.17.104 0 .023.17.149.15.126-.022.399-.023.399-.023l.008.009.18.203s.212-.105.233-.212c.022-.104.022-.104.19-.104.167 0 .105-.022.316-.19.21-.166-.064-.314-.233-.4-.17-.085-.024-.233-.024-.233l.024-.298s0-.102-.024-.253c-.021-.147-.063-.253-.084-.4-.021-.147-.167-.103-.167-.103v-.191s.315 0 .42-.042c.105-.04 0-.253 0-.253s-.25-.102-.44-.166c-.19-.062-.063-.104.253-.126.313-.02.042-.168.042-.168l-.252-.147s-.127.168-.337.253a.28.28 0 00-.1.058c-.074.073-.025.16-.09.258v.166l.09.157.057.098s-.02.087-.056.179c-.02.047-.04.096-.07.137-.085.127.04.276.04.276s0 .274-.04.424c-.041.147-.36-.13-.36-.13l-.063.36h-.292l.042.19.07.057.118.092.124.19-.24-.088-.114-.038-.21.2zm-3.3-9.513l-.36.38s.314.063.422.04c.06-.012.233-.124.408-.246.128-.088.256-.174.35-.237.234-.15.317-.103.317-.103l.085.166-.507.297.59-.085.07-.066.228-.21.233-.274.357.022.134-.05.306-.116s.253-.166.36-.36c.082-.148.138-.063.239-.04.03.009.059.009.098-.002.166-.04.085-.19.085-.337 0-.071.099-.078.22-.076.122.003.263.014.329-.031.124-.087-.105-.253-.274-.297l-.055-.013c-.132-.032-.2-.047-.22-.176-.013-.077-.09-.101-.18-.097a.502.502 0 00-.24.075c-.124.086-.376.104-.295-.063.013-.027.034-.035.045-.053-.652.138-1.304.314-1.95.53.146-.004.208.007.304.007.126 0-.126.15-.126.15s-.378.128-.486.212l-.012.012c-.091.086-.05.222-.05.222h.05c.068-.002.19-.006.265-.022.103-.024.19-.064.46-.234.09-.053.14-.082.176-.1.08-.032.083-.014.182-.07.147-.088.04.23.04.23l.399-.147.324-.014.118-.007.126-.233-.244-.052-.134-.032.127-.127h.007c.058 0 .424.002.539.024.128.019 0 .167 0 .167l-.04.166-.147.275s-.19.023-.336.023h-.016c-.144.009-.3.168-.3.168l-.295.21h-.423l-.064.232-.337-.04s-.04-.105-.062-.252c-.023-.15-.167 0-.167 0s-.06.25-.203.358a.202.202 0 01-.093.042c-.208.042-.378.254-.378.254zm4.583-2.233c-.18.017-.36.034-.54.056.023.005.04.014.1.026.124.02.02.062.02.166 0 .068.03.096.134.115.053.01.125.019.227.034.295.04.102-.087.062-.338-.003-.022-.006-.043-.003-.06zm-1.135.248s.023-.043.04-.107c-.031.006-.06.009-.09.014a.17.17 0 01.05.093zm2.41-.332a.312.312 0 00-.032.166c.022.188.063 0 .19-.042.076-.028.094-.056.108-.125-.083-.002-.172 0-.265 0zm-12.331 5.59l.265.017.336-.211.337.102-.19.088s-.186.272-.23.4c-.044.125.503.103.503.103s.147-.4.147-.57c0-.165.44-.274.44-.274l.126-.337.213.15s.124-.233.103-.337c-.024-.106-.4-.128-.4-.128l.376-.19.38.106-.086.736h.378l.084.129s-.525.293-.631.293c-.102 0-.337.277-.337.277l-.21.234s.086.126.25.168c.167.04.167.147.167.147s.233-.084.233-.211c0-.126-.085-.166-.085-.166l.315-.36c.124-.15.798-.443.925-.592.124-.147.04-.251.04-.251l.316-.19s.085-.4.126-.504c.04-.104.484-.317.8-.55.315-.233.358-.252.776-.36.423-.105.127-.15.104-.276-.02-.127-.357.17-.357.17l-.504-.15s.21 0 .42-.167c.213-.166.168-.041.315-.104.15-.062.105-.128.105-.128h.232s.19-.187.296-.358c.104-.167.337-.486.337-.486s-.525.298-.632.338c-.102.04-.273-.04-.4-.04s-.313.21-.525.293c-.21.087-.442.213-.442.213l-.313-.062-.252.102-.61.254s.103-.084.36-.233l.502-.297.4-.103.034-.206c-.16.086-.32.166-.483.259a17.677 17.677 0 00-4.054 3.26v.002zm15.835 17.169c.435-1.387.84-2.784 1.215-4.188 3.41-12.74 3.802-23.707.885-24.49-1.257-.338-2.924 1.273-4.687 4.23h-.056c1.976.047 3.933.4 5.793 1.044.035.61.038 1.173.036 1.627h.002c-.002.368-.006.662-.013.834-.057 1.6-.202 3.24-.413 4.89a1.025 1.025 0 00-.246-.052c-.226-.016-.232-.003-.23 0-.002-.003-.19-.16-.257-.28-.072-.12-.21-.21-.47-.297-.263-.09-.244.104-.244.104s-.243.172-.558.14c-.3-.035-.375.302-.38.328h-.001l-.226.194s-.122.21-.262.21a.864.864 0 00-.243.033s-.07.26-.07.4-.14.16-.14.16-.173.033-.295.087c-.121.05-.243.122-.366.19-.121.07-.07.123-.313.263-.243.138-.33.19-.33.19l-.33.07.17.174-.26.053s-.02.156.016.278c.033.122.3.14.3.14s-.174.14-.384.23c-.21.088-.21.12-.192.208.018.089.139.28.486.367.352.088.105-.017.26-.103.16-.09.33-.14.33-.14s.214.35.214.505c0 .156-.053.453-.034.56.017.104.19-.035.19-.035l-.156.173s.033.313.033.403c0 .088.31.033.31-.052 0-.086.17-.23.433-.244.26-.018.228-.051.228-.261 0-.21.05-.49.05-.49l.299-.087s.17-.128.282-.234a.558.558 0 00.068-.08c.036-.056-.006-.112-.068-.166-.053-.044-.12-.09-.16-.128-.09-.088-.122-.366-.122-.542 0-.173 0-.104.02-.227.015-.111.146-.12.262-.148a.91.91 0 00.032-.01c.122-.034.278-.242.504-.35.226-.107-.122-.121-.122-.121s.036-.19.07-.35c.034-.158.486.053.486.053l.175.207-.21.159-.24.363-.346.455.279.73s.24.12.398.102a.843.843 0 00.435-.19c.045-.035.266-.097.51-.15l-.082.488c-.08.032-.168-.034-.366-.034-.272 0-.344.125-.59.149-.248.027-.1.198-.1.32 0 .124.346.273.346.273l-.271.173s-.125-.272-.368-.246c-.243.025-.148.345-.3.468-.145.124.1.498.1.498s-.177.02-.34.112c-.017.013-.036.022-.055.033-.171.122-.221.026-.221.026s-.1-.15-.221-.15c-.125 0-.301.198-.424.246-.125.049-.542 0-.542 0l-.273-.298-.226.226s-.196-.05-.32-.2c-.12-.15 0-.122-.026-.247-.023-.122-.073-.122-.073-.122l.123-.197.32-.2s.074-.442-.074-.64c-.15-.198-.15.198-.15.198l-.493.32.026.669-.1.296-.192-.047-.124.149s-.124-.075-.318-.15c-.2-.073-.545.247-.545.247l-.044.11-.08.185-.27-.05-.148.174h-.298c-.126 0-.05.22-.05.22s-.084.1-.18.137l-.043-.057c-.144-.02-.18 0-.268.072a.432.432 0 01-.158.068 1.35 1.35 0 01-.131.023l-.126-.323s-.09-.165-.177-.035c-.091.128-.056.215-.056.215l.037.22-.18.017-.035-.01-.09-.027-.31-.188-.048-.027s-.215-.037-.176.105c.033.144.215.323.215.414 0 .012.005.018.01.024.055.063.314.044.314.159 0 .126-.165.27-.165.27s.127.106.127.27c0 .162-.037.395-.074.5-.035.108-.124.073-.16.182-.01.028-.028.057-.044.087-.056.094-.135.182-.135.182s-.27.072-.361.035c-.093-.035-.164-.165-.324-.197a.225.225 0 00-.088-.006c-.062.008-.073.04-.233-.067-.218-.145-.287-.198-.432-.252a.428.428 0 01-.215-.18l-.066-.035a.604.604 0 00-.222-.09c-.09 0-.233.165-.233.165s.034.143 0 .323c-.033.179.034.27-.071.342-.106.072-.127.017-.144.163-.02.144.072.072-.071.216-.13.13-.07.128-.163.194-.012.006-.024.016-.035.024-.146.09-.198.072-.29.217a.82.82 0 00-.124.432c0 .125.393.574.393.574l.056.016c.062.02.163.063.163.147 0 .128-.148.18 0 .272.143.09.07.106.16.163.044.026.313.085.58.14.295.058.587.11.587.11l.198-.142h.34l.09-.307.27-.017.019-.29s-.035-.29.053-.29c.043 0 .175-.074.3-.15.124-.076.239-.156.239-.156s.068.015.16.027c.138.022.324.036.379-.01.09-.07.289-.36.289-.36s-.041-.23.005-.33c.014-.031.033-.046.065-.046.143 0 .487.019.594.126.106.106.374.25.484.233.094-.017.242-.112.35-.186l.044-.033c.039-.028.146-.102.262-.19l.008.013s.25.034.322.163c.072.125.107.36.072.502-.035.14.233.27.323.376.09.107.523.684.665.864.143.177.43.502.43.502l.145.344-.303.216s-.324-.018-.433-.055c-.107-.036-.196.072-.196.072s-.074-.036-.234-.178c-.162-.145-.052.018-.251.127-.197.106.25.268.362.359.104.094.248.25.32.345.07.09.252-.033.252-.18 0-.145.018-.27.018-.27h.32l.2-.232.166-.143.072-.2-.127-.36s.22-.072.3-.072c.095 0 .18.27.18.27l.095.036s0-.216-.054-.306c-.053-.092-.341-.305-.341-.305s-.323-.126-.418-.197c-.09-.072-.3-.45-.411-.646-.106-.2-.033-.22-.053-.306-.02-.09-.2-.2-.271-.321-.072-.13-.05-.306-.05-.306s.162-.108.34-.216c.065-.038.096-.066.099-.081.072.074.259.29.259.42 0 .165.07.344.107.45.036.107.25.198.54.252.288.053.196.25.196.25s.27.325.303.54c.033.218.033.326.053.595.02.269.147.302.232.56.09.25.124.25.18.446.025.093.042.183.074.273a75.35 75.35 0 01-.565 1.993c-.167.157-.288.727-.288.727s-.054.033-.132.052l-.373-.09c-.187-.204-.625-.285-.854-.435-.235-.16-.235-.5-.42-.658-.184-.16-.315-.078-.315-.078s-.523-.106-.63-.237a7.416 7.416 0 00-.225-.26c-.065-.078-.118-.132-.118-.132s.05-.05.118-.103c.078-.067.177-.144.249-.16.13-.028-.052-.292-.21-.554-.16-.263.42-.342.392-.473-.027-.13-.277-.132-.432-.205l-.014-.005c-.158-.081-.522 0-.522 0l-.5-.103s-.158.05-.288.103c-.047.019-.107.01-.17-.021a.635.635 0 01-.3-.3c-.071-.144-.22-.114-.368-.124a.475.475 0 01-.208-.06.328.328 0 00-.192-.055c-.116.004-.222.066-.36.085-.17.022-.398.078-.55.097a.392.392 0 01-.08.01c-.131 0-.29.103-.472.21-.184.104-.234-.29-.234-.29s-.056 0-.16-.02a2.613 2.613 0 01-.472-.138c-.393-.16-.211-.395-.211-.395s-.072.06-.221.19c-.05.042-.104.094-.17.152-.263.234-.341.34-.577.315-.233-.03-.366.079-.524.158-.145.074-.466.633-.513.724-3.126-1.077-6.216-2.34-9.008-3.825a32.616 32.616 0 01-2.112-1.249 19.162 19.162 0 011.97-5.504c-3.435.05-5.662.695-5.998 1.953-.78 2.927 8.89 8.065 21.596 11.483 1.444.369 2.857.712 4.237 1.02zM9.742 17.454l-.002.005.002-.005zm15.97 9.077c-.086.034-.086.23-.086.23s.07.089.159.104a.511.511 0 00.218-.014c.042-.01.095-.022.152-.038.173-.051.069-.14.104-.263.034-.123.034-.284.104-.406.07-.122-.142-.212-.142-.212s-.163.23-.222.322l-.006.012c-.052.086-.19.229-.28.265zm.29-.942c.094-.02.3-.075.346-.185.05-.14.033-.07.088-.23.054-.16-.142.054-.142.054l-.23.14-.062.137-.041.093s.014 0 .04-.01z" fill="#262626"/></svg>